<?xml version="1.0" encoding="UTF-8"?><svg id="Layer_2" xmlns="http://www.w3.org/2000/svg" viewBox="0 0 373.49 87.43"><defs><style>.cls-1{fill:#231f20;}.cls-2{fill:#3cb987;}</style></defs><g id="NEW_LOGO"><g><polygon class="cls-1" points="304.52 0 287.28 0 287.28 17.24 297.38 17.24 321.76 41.63 321.76 44.58 297.38 68.97 287.28 68.97 287.28 86.21 304.52 86.21 339 51.73 339 34.48 304.52 0"/><rect class="cls-2" x="339" y="17.24" width="17.24" height="17.24"/><rect class="cls-2" x="356.25" y="0" width="17.24" height="17.24"/><rect class="cls-2" x="339" y="51.73" width="17.24" height="17.24"/><rect class="cls-2" x="356.25" y="68.97" width="17.24" height="17.24"/><g><polygon class="cls-1" points="0 86.21 0 0 18.23 0 18.23 71.18 55.19 71.18 55.19 86.21 0 86.21"/><path class="cls-1" d="M119.55,32.69c-1.49-2.76-3.51-5.03-6.08-6.8-2.57-1.77-5.5-3.07-8.8-3.91-3.3-.84-6.74-1.26-10.33-1.26-5.16,0-9.7,.78-13.62,2.34-3.91,1.56-7.11,3.77-9.58,6.65-2.47,2.88-4.13,6.28-4.97,10.21l16.59,1.35c.62-2.13,1.88-3.91,3.79-5.32,1.91-1.42,4.48-2.13,7.7-2.13,3.06,0,5.42,.73,7.09,2.19,1.67,1.46,2.5,3.52,2.5,6.19v.25c0,1.38-.52,2.41-1.56,3.12-1.04,.7-2.71,1.23-5.01,1.58-2.3,.35-5.33,.72-9.09,1.11-3.2,.31-6.25,.84-9.16,1.6-2.9,.76-5.49,1.88-7.77,3.37-2.27,1.49-4.07,3.45-5.39,5.89-1.32,2.44-1.98,5.46-1.98,9.05,0,4.27,.93,7.82,2.8,10.67,1.87,2.85,4.41,5,7.64,6.44,3.23,1.45,6.9,2.17,11.03,2.17,3.2,0,6.02-.43,8.46-1.28,2.44-.86,4.53-2.05,6.27-3.58,1.74-1.53,3.13-3.3,4.17-5.32h.51v8.97h17.01V42.6c0-3.84-.74-7.15-2.23-9.91Zm-15.57,30.41c0,2.27-.58,4.31-1.73,6.1-1.15,1.8-2.74,3.22-4.76,4.27-2.02,1.05-4.35,1.58-6.99,1.58s-5.02-.64-6.8-1.92c-1.78-1.28-2.67-3.14-2.67-5.58,0-1.68,.44-3.09,1.31-4.23,.87-1.14,2.09-2.04,3.66-2.71,1.57-.67,3.41-1.16,5.51-1.47,.98-.14,2.08-.3,3.28-.48,1.21-.18,2.41-.39,3.62-.63,1.21-.24,2.29-.5,3.26-.8,.97-.3,1.73-.62,2.29-.99v6.86Z"/><path class="cls-1" d="M153.64,48.83v37.38h-17.93V21.55h17.09v11.41h.76c1.43-3.76,3.83-6.74,7.2-8.94,3.37-2.2,7.45-3.3,12.25-3.3,4.49,0,8.4,.98,11.74,2.95,3.34,1.96,5.93,4.76,7.79,8.4,1.85,3.63,2.78,7.96,2.78,12.99v41.17h-17.93V48.24c.03-3.96-.98-7.05-3.03-9.28-2.05-2.23-4.87-3.35-8.46-3.35-2.41,0-4.54,.52-6.38,1.56-1.84,1.04-3.27,2.55-4.29,4.53-1.03,1.98-1.55,4.36-1.58,7.14Z"/><path class="cls-1" d="M252.14,0V32.41h-.55c-.79-1.74-1.93-3.51-3.43-5.32-1.5-1.81-3.47-3.32-5.89-4.55-2.43-1.22-5.45-1.83-9.07-1.83-4.74,0-9.1,1.23-13.07,3.68-3.97,2.46-7.15,6.15-9.53,11.07-2.39,4.93-3.58,11.09-3.58,18.5s1.16,13.3,3.47,18.25c2.32,4.95,5.46,8.7,9.43,11.24,3.97,2.54,8.41,3.81,13.32,3.81,3.48,0,6.43-.57,8.86-1.73,2.43-1.15,4.4-2.6,5.93-4.36,1.53-1.75,2.72-3.53,3.56-5.32h.76v10.36h17.68V0h-17.89Zm-1.24,63.94c-1.08,2.86-2.62,5.09-4.63,6.67-2.01,1.59-4.46,2.38-7.35,2.38s-5.42-.81-7.43-2.42c-2.01-1.61-3.54-3.86-4.59-6.74-1.05-2.88-1.58-6.19-1.58-9.95s.52-7.02,1.56-9.85c1.04-2.83,2.57-5.05,4.59-6.65,2.02-1.6,4.5-2.4,7.45-2.4s5.35,.77,7.37,2.32c2.02,1.54,3.56,3.73,4.63,6.57,1.07,2.83,1.6,6.17,1.6,10.02s-.54,7.2-1.62,10.06Z"/></g></g></g></svg>